<?xml version="1.0" standalone="no"?>
<!DOCTYPE svg PUBLIC "-//W3C//DTD SVG 20010904//EN"
 "http://www.w3.org/TR/2001/REC-SVG-20010904/DTD/svg10.dtd">
<svg version="1.0" xmlns="http://www.w3.org/2000/svg"
 width="880.000000pt" height="1280.000000pt" viewBox="0 0 880.000000 1280.000000"
 preserveAspectRatio="xMidYMid meet">
<metadata>
Created by potrace 1.15, written by Peter Selinger 2001-2017
</metadata>
<g transform="translate(0.000000,1280.000000) scale(0.100000,-0.100000)"
fill="#ff9800" stroke="none">
<path d="M5325 12775 l-25 -24 0 -266 0 -266 25 -24 24 -25 264 0 c252 0 266
1 291 21 l26 20 0 273 c0 272 0 273 -23 294 -23 21 -30 22 -291 22 l-267 0
-24 -25z"/>
<path d="M1711 12764 c-20 -25 -21 -39 -21 -281 0 -235 4 -277 27 -303 3 -3
95 -7 206 -10 l202 -5 3 -197 2 -198 -203 0 c-200 0 -204 0 -225 -23 -21 -23
-22 -30 -22 -289 0 -247 1 -267 19 -289 l19 -24 277 0 277 0 19 24 c18 22 19
42 19 287 l0 264 110 0 c106 0 110 -1 100 -19 -14 -28 -14 -512 1 -545 20 -43
47 -47 321 -44 235 3 258 5 277 22 l21 19 0 -221 0 -221 26 -20 c25 -20 39
-21 289 -21 244 0 264 1 286 19 l24 19 0 277 0 277 -24 19 c-22 18 -42 19
-292 19 -263 0 -269 0 -289 -22 l-20 -22 0 222 c0 209 -1 223 -20 242 -19 19
-33 20 -201 20 -161 0 -180 2 -175 16 3 9 6 101 6 205 l0 189 205 0 c205 0
206 0 230 25 l25 24 0 269 c0 268 0 269 -23 290 -23 21 -30 22 -291 22 l-267
0 -24 -25 c-25 -24 -25 -26 -25 -215 l0 -190 -130 0 -130 0 0 200 c0 187 -1
201 -20 220 -19 19 -33 20 -294 20 l-275 0 -20 -26z"/>
<path d="M4572 12727 c-21 -23 -22 -30 -22 -289 0 -247 1 -267 19 -289 l19
-24 277 0 277 0 19 24 c18 22 19 42 19 286 0 250 -1 264 -21 289 l-20 26 -273
0 c-272 0 -273 0 -294 -23z"/>
<path d="M5342 12060 c-22 -20 -22 -26 -22 -294 0 -272 0 -273 23 -294 23 -21
30 -22 289 -22 247 0 267 1 289 19 l24 19 0 277 0 277 -24 19 c-22 18 -42 19
-290 19 -255 0 -268 -1 -289 -20z"/>
<path d="M4589 11941 l-24 -19 0 -277 0 -277 24 -19 c22 -18 42 -19 292 -19
256 0 270 1 289 20 19 19 20 33 20 294 l0 275 -26 20 c-25 20 -39 21 -289 21
-244 0 -264 -1 -286 -19z"/>
<path d="M3857 11342 c-15 -16 -17 -52 -17 -294 0 -254 1 -276 18 -291 16 -15
52 -17 294 -17 267 0 275 1 294 21 18 20 19 40 19 289 0 249 -1 269 -19 289
-19 20 -27 21 -296 21 -256 0 -278 -1 -293 -18z"/>
<path d="M140 11313 c-8 -3 -23 -12 -32 -21 -16 -14 -18 -41 -18 -289 0 -260
1 -274 20 -293 19 -19 33 -20 293 -20 266 0 274 1 293 21 17 19 19 42 22 268
4 269 -2 310 -43 329 -27 12 -504 16 -535 5z"/>
<path d="M5271 11294 c-20 -25 -21 -39 -21 -290 0 -248 1 -265 19 -283 30 -30
64 -33 330 -29 241 3 243 3 262 27 18 22 19 42 19 292 0 256 -1 270 -20 289
-19 19 -33 20 -294 20 l-275 0 -20 -26z"/>
<path d="M891 11254 c-20 -25 -21 -39 -21 -289 0 -244 1 -264 19 -286 l19 -24
277 0 277 0 19 24 c18 22 19 42 19 290 0 267 0 268 -23 289 -23 21 -30 22
-294 22 l-272 0 -20 -26z"/>
<path d="M4562 11157 c-21 -23 -22 -30 -22 -291 l0 -267 25 -24 24 -25 266 0
266 0 24 25 25 24 0 264 c0 252 -1 266 -21 291 l-20 26 -273 0 c-272 0 -273 0
-294 -23z"/>
<path d="M5965 11125 l-25 -24 0 -266 0 -266 25 -24 24 -25 266 0 266 0 24 25
25 24 0 264 c0 252 -1 266 -21 291 l-20 26 -270 0 -270 0 -24 -25z"/>
<path d="M6713 11043 c-50 -10 -53 -27 -53 -315 0 -255 1 -269 20 -288 19 -19
33 -20 294 -20 l275 0 20 26 c20 25 21 39 21 285 l0 258 -24 28 -24 28 -254 1
c-139 1 -263 0 -275 -3z"/>
<path d="M1681 10974 c-20 -25 -21 -39 -21 -289 0 -244 1 -264 19 -286 l19
-24 271 -3 271 -3 25 25 25 25 0 269 c0 268 0 269 -23 290 -23 21 -30 22 -294
22 l-272 0 -20 -26z"/>
<path d="M2453 10860 c-40 -16 -43 -38 -43 -308 0 -247 1 -261 21 -286 l20
-26 275 0 c261 0 275 1 294 20 19 19 20 33 20 289 0 250 -1 270 -19 292 l-19
24 -264 2 c-144 1 -273 -2 -285 -7z"/>
<path d="M3840 10600 c-19 -19 -20 -33 -20 -290 0 -257 1 -271 20 -290 19 -19
33 -20 295 -20 262 0 276 1 295 20 19 19 20 33 20 288 0 256 -1 269 -20 290
-20 22 -26 22 -295 22 -262 0 -276 -1 -295 -20z"/>
<path d="M3169 10549 c-14 -5 -31 -21 -38 -35 -14 -33 -15 -517 -1 -545 10
-18 5 -19 -189 -19 -181 0 -201 -2 -222 -19 l-24 -19 0 -277 0 -277 24 -19
c22 -18 42 -19 292 -19 258 0 270 1 289 20 20 20 21 30 18 305 l-3 285 198 0
c184 0 198 1 217 20 19 19 20 33 20 289 0 250 -1 270 -19 292 l-19 24 -259 2
c-149 1 -269 -2 -284 -8z"/>
<path d="M7339 10541 c-24 -19 -24 -20 -27 -268 -4 -271 2 -312 43 -331 17 -8
99 -12 243 -12 l217 0 -5 -117 -5 -118 -243 -5 c-278 -6 -272 -4 -272 -92 0
-45 -11 -61 -25 -38 -4 6 -106 10 -274 10 -250 0 -270 -1 -292 -19 l-24 -19 0
-277 0 -277 24 -19 c22 -18 42 -19 286 -19 250 0 264 1 289 21 22 18 26 28 26
75 0 53 6 64 26 44 7 -7 107 -10 287 -8 l277 3 0 -100 0 -100 -263 3 c-255 3
-264 2 -290 -18 -20 -16 -27 -30 -27 -57 0 -30 -3 -34 -17 -27 -28 14 -522 17
-554 4 -14 -6 -31 -21 -37 -34 -6 -14 -8 -119 -4 -289 5 -257 6 -269 26 -282
17 -12 70 -15 288 -15 255 0 269 1 288 20 12 12 20 33 20 55 0 32 2 35 19 25
12 -6 111 -10 251 -10 l231 0 -3 -127 -3 -128 -240 -2 c-230 -3 -241 -4 -257
-24 -16 -19 -18 -49 -18 -290 l0 -269 -117 0 -118 0 3 285 c3 275 2 285 -18
305 -19 19 -32 20 -227 21 -128 0 -200 4 -187 9 51 20 54 36 54 308 0 249 -4
284 -34 304 -6 4 -123 8 -259 8 -189 0 -249 3 -252 13 -2 6 -5 54 -7 105 l-3
92 232 0 c226 0 233 1 253 22 19 21 20 34 20 289 0 248 -1 268 -19 290 l-19
24 -277 0 -277 0 -19 -24 c-19 -23 -20 -39 -17 -300 l3 -276 -227 0 c-223 0
-228 0 -250 -23 -23 -22 -23 -25 -23 -291 0 -250 1 -270 19 -290 18 -20 28
-21 273 -21 l253 0 0 -95 c0 -141 -11 -135 253 -135 192 -1 209 -2 179 -15
-18 -8 -37 -26 -42 -40 -14 -36 -13 -493 0 -532 17 -49 41 -53 276 -53 209 0
214 0 204 -19 -6 -12 -10 -117 -10 -271 0 -247 4 -282 34 -302 6 -4 136 -8
288 -8 275 0 277 0 292 22 14 19 16 64 16 290 l0 268 169 0 170 0 20 26 c20
25 21 40 21 215 l0 189 238 0 c236 0 239 0 260 23 21 23 22 30 22 289 0 247
-1 267 -19 289 -19 24 -21 24 -261 27 l-241 3 3 65 3 64 273 3 274 2 19 24
c18 22 19 42 19 292 0 257 -1 270 -20 289 -20 20 -31 21 -300 18 l-280 -3 0
73 0 72 225 0 c149 0 233 4 250 12 41 19 47 60 43 331 -3 248 -3 249 -27 268
-21 17 -42 19 -250 19 l-226 0 3 280 c3 269 2 280 -18 300 -19 19 -32 20 -289
20 -250 0 -270 -1 -292 -19z"/>
<path d="M144 10509 c-17 -19 -19 -42 -22 -283 -3 -254 -2 -263 18 -289 l21
-27 278 0 c257 0 279 1 294 18 15 16 17 51 17 290 0 259 -1 273 -20 292 -19
19 -33 20 -293 20 -266 0 -274 -1 -293 -21z"/>
<path d="M5239 10481 l-24 -19 0 -277 0 -277 24 -19 c22 -18 42 -19 290 -19
267 0 268 0 289 23 21 23 22 30 22 295 0 266 0 272 -22 292 -21 19 -34 20
-289 20 -248 0 -268 -1 -290 -19z"/>
<path d="M4522 10437 c-21 -23 -22 -30 -22 -291 l0 -267 25 -24 24 -25 266 0
266 0 24 25 25 24 0 266 0 266 -25 24 -24 25 -269 0 c-268 0 -269 0 -290 -23z"/>
<path d="M1002 10410 c-12 -5 -27 -21 -32 -35 -6 -15 -10 -137 -10 -279 0
-241 1 -255 21 -280 l20 -26 275 0 c261 0 275 1 294 20 19 19 20 33 20 289 0
250 -1 270 -19 292 l-19 24 -264 2 c-145 1 -273 -2 -286 -7z"/>
<path d="M5953 10300 c-38 -16 -45 -66 -41 -333 3 -248 3 -249 27 -268 22 -18
42 -19 292 -19 256 0 270 1 289 20 19 19 20 33 20 294 l0 275 -26 20 c-25 20
-38 21 -283 20 -141 0 -266 -4 -278 -9z"/>
<path d="M6636 10288 c-14 -19 -16 -64 -16 -288 0 -224 2 -269 16 -288 15 -22
17 -22 294 -22 l279 0 20 26 c20 25 21 39 21 284 0 245 -1 259 -21 284 l-20
26 -279 0 c-277 0 -279 0 -294 -22z"/>
<path d="M1861 10154 c-20 -25 -21 -39 -21 -290 0 -250 1 -265 20 -284 11 -11
30 -22 42 -25 13 -3 137 -5 277 -3 252 3 253 3 272 27 18 22 19 42 19 292 0
256 -1 270 -20 289 -19 19 -33 20 -294 20 l-275 0 -20 -26z"/>
<path d="M3635 9855 l-25 -24 0 -266 0 -266 25 -24 24 -25 266 0 266 0 24 25
25 24 0 266 0 266 -25 24 -24 25 -266 0 -266 0 -24 -25z"/>
<path d="M4497 9782 c-15 -16 -17 -52 -17 -294 0 -267 1 -275 21 -294 20 -18
40 -19 290 -19 266 0 269 0 291 23 23 22 23 25 23 291 0 250 -1 270 -19 290
-19 20 -27 21 -296 21 -256 0 -278 -1 -293 -18z"/>
<path d="M106 9769 l-26 -20 0 -275 c0 -261 1 -275 20 -294 19 -19 33 -20 294
-20 l275 0 20 26 c20 25 21 39 21 281 0 274 -5 304 -52 317 -13 3 -136 6 -274
6 -239 0 -253 -1 -278 -21z"/>
<path d="M5290 9660 c-19 -19 -20 -33 -20 -288 0 -226 2 -271 16 -290 15 -22
17 -22 292 -22 152 0 282 4 288 8 30 20 34 55 34 305 0 242 -1 256 -21 281
l-20 26 -275 0 c-261 0 -275 -1 -294 -20z"/>
<path d="M842 9610 c-22 -20 -22 -26 -22 -295 l0 -274 26 -20 c25 -20 39 -21
289 -21 244 0 264 1 286 19 l24 19 0 277 0 277 -24 19 c-22 18 -42 19 -290 19
-255 0 -268 -1 -289 -20z"/>
<path d="M1577 9462 c-15 -16 -17 -52 -17 -294 0 -267 1 -275 21 -294 20 -18
40 -19 290 -19 266 0 269 0 291 23 23 22 23 25 23 291 0 250 -1 270 -19 290
-19 20 -27 21 -296 21 -256 0 -278 -1 -293 -18z"/>
<path d="M2342 9230 c-22 -20 -22 -26 -22 -295 l0 -274 26 -20 c25 -20 39 -21
289 -21 244 0 264 1 286 19 l24 19 0 277 0 277 -24 19 c-22 18 -42 19 -290 19
-255 0 -268 -1 -289 -20z"/>
<path d="M125 9015 l-25 -24 0 -266 0 -266 25 -24 24 -25 266 0 266 0 24 25
25 24 0 266 0 266 -25 24 -24 25 -266 0 -266 0 -24 -25z"/>
<path d="M909 8801 c-24 -19 -24 -21 -27 -262 -4 -266 -1 -300 29 -330 18 -18
35 -19 283 -19 251 0 265 1 290 21 l26 20 0 275 c0 261 -1 275 -20 294 -19 19
-33 20 -289 20 -250 0 -270 -1 -292 -19z"/>
<path d="M1657 8672 c-15 -16 -17 -52 -17 -294 0 -254 1 -276 18 -291 16 -15
52 -17 294 -17 254 0 276 1 291 18 15 16 17 52 17 294 0 254 -1 276 -18 291
-16 15 -52 17 -294 17 -254 0 -276 -1 -291 -18z"/>
<path d="M2400 8420 c-19 -19 -20 -33 -20 -270 l0 -250 -225 0 -226 0 -24 -25
-25 -24 0 38 c0 26 -7 44 -23 59 -23 21 -30 22 -286 22 -162 0 -270 -4 -282
-10 -17 -10 -19 -7 -19 28 0 25 -8 49 -21 66 l-20 26 -273 0 c-198 0 -275 -3
-284 -12 -9 -9 -12 13 -12 99 0 94 -3 114 -19 134 l-19 24 -277 0 -277 0 -19
-24 c-18 -22 -19 -42 -19 -290 0 -257 1 -268 21 -290 21 -22 22 -22 305 -19
l284 3 0 -72 0 -73 -265 0 -266 0 -24 -25 -25 -24 0 -264 c0 -252 1 -266 21
-291 l20 -26 274 0 274 0 20 26 c20 25 21 39 21 260 l0 234 261 0 c160 0 268
4 280 10 17 10 19 7 19 -29 0 -23 8 -48 19 -62 l19 -24 271 -3 271 -3 24 24
24 24 5 -41 c10 -75 13 -76 312 -76 250 0 264 1 289 21 l26 20 0 250 0 249
219 0 c206 0 220 1 245 21 l26 20 0 279 c0 277 0 279 -22 294 -19 14 -64 16
-290 16 -255 0 -269 -1 -288 -20z"/>
<path d="M5610 7950 c-19 -19 -20 -33 -20 -288 0 -226 2 -271 16 -290 15 -22
17 -22 294 -22 l279 0 20 26 c20 25 21 39 21 284 0 245 -1 259 -21 284 l-20
26 -275 0 c-261 0 -275 -1 -294 -20z"/>
<path d="M2555 7535 l-25 -24 0 -266 0 -266 25 -24 24 -25 266 0 266 0 24 25
25 24 0 269 c0 268 0 269 -23 290 -23 21 -30 22 -291 22 l-267 0 -24 -25z"/>
<path d="M4942 7510 c-39 -16 -43 -49 -40 -321 3 -236 5 -259 22 -278 19 -20
27 -21 288 -21 167 0 277 4 289 10 18 10 19 5 19 -183 0 -151 3 -197 14 -213
13 -18 32 -19 278 -24 l263 -5 3 -249 c2 -215 5 -252 19 -268 14 -16 35 -18
186 -18 150 0 168 -2 163 -16 -3 -9 -6 -119 -6 -245 l0 -229 -245 0 c-232 0
-246 -1 -265 -20 -19 -19 -20 -33 -20 -293 0 -266 1 -274 21 -293 20 -18 40
-19 290 -19 266 0 269 0 291 23 22 22 23 28 25 260 l3 237 247 2 c239 3 249 4
266 24 15 19 17 49 17 290 0 256 -1 270 -20 289 -18 18 -33 20 -185 20 l-165
0 0 278 c0 271 -1 279 -21 298 -19 17 -42 19 -275 22 l-254 3 0 239 c0 238 0
239 -24 267 l-24 28 -257 3 c-210 2 -261 0 -285 -12 l-30 -14 0 198 0 199 -26
20 c-25 20 -38 21 -283 20 -141 0 -266 -4 -279 -9z"/>
<path d="M3446 7439 l-26 -20 0 -255 0 -254 -98 0 c-150 0 -142 17 -142 -312
0 -330 -8 -311 139 -316 101 -4 101 -4 86 -25 -12 -18 -15 -68 -15 -285 l0
-263 25 -24 24 -25 266 0 266 0 24 25 c25 24 25 27 25 191 0 147 2 165 16 160
9 -3 128 -6 265 -6 l249 0 0 -193 c0 -181 1 -195 20 -215 20 -22 26 -22 295
-22 l274 0 20 26 c20 25 21 39 21 279 l0 253 116 4 c165 4 154 -17 154 313 0
250 -1 264 -21 289 l-20 26 -273 0 c-272 0 -273 0 -294 -23 -21 -23 -22 -30
-22 -280 l0 -257 -100 0 -100 0 0 190 c0 189 0 191 -25 215 l-24 25 -269 0
c-341 0 -312 20 -312 -214 0 -149 -2 -167 -16 -162 -9 3 -56 6 -105 6 l-90 0
15 22 c14 19 16 62 16 270 l0 248 94 0 c77 0 98 3 117 19 l24 19 0 277 0 277
-24 19 c-22 18 -42 19 -286 19 -250 0 -264 -1 -289 -21z"/>
<path d="M4187 7372 c-15 -16 -17 -52 -17 -294 0 -254 1 -276 18 -291 16 -15
52 -17 294 -17 254 0 276 1 291 18 15 16 17 52 17 294 0 254 -1 276 -18 291
-16 15 -52 17 -294 17 -254 0 -276 -1 -291 -18z"/>
<path d="M6242 7287 c-21 -23 -22 -30 -22 -295 0 -266 0 -272 22 -292 21 -19
34 -20 289 -20 248 0 268 1 290 19 l24 19 0 277 0 277 -24 19 c-22 18 -42 19
-290 19 -267 0 -268 0 -289 -23z"/>
<path d="M866 7249 l-26 -20 0 -275 c0 -261 1 -275 20 -294 19 -19 33 -20 289
-20 250 0 270 1 292 19 24 19 24 20 27 277 3 276 -1 303 -44 323 -16 7 -111
11 -278 11 -241 0 -255 -1 -280 -21z"/>
<path d="M1709 7201 l-24 -19 -3 -271 -3 -271 25 -25 25 -25 269 0 c268 0 269
0 290 23 21 23 22 30 22 294 l0 272 -26 20 c-25 20 -39 21 -289 21 -244 0
-264 -1 -286 -19z"/>
<path d="M2512 6860 c-36 -15 -42 -50 -42 -232 0 -159 -1 -170 -17 -162 -10 5
-139 9 -286 9 l-269 0 -19 -24 c-18 -22 -19 -42 -19 -292 0 -256 1 -270 20
-289 19 -19 33 -20 294 -20 l275 0 20 26 c19 25 21 40 21 206 0 174 1 178 19
168 12 -6 121 -10 285 -10 253 0 267 1 286 20 19 19 20 33 20 294 l0 275 -26
20 c-25 20 -38 21 -283 20 -141 0 -266 -4 -279 -9z"/>
<path d="M135 6843 c-11 -3 -28 -12 -37 -21 -16 -14 -18 -41 -18 -292 0 -256
1 -278 18 -293 16 -15 50 -17 270 -17 l252 0 0 -77 0 -78 -278 3 c-264 3 -280
2 -303 -17 l-24 -19 -3 -255 c-3 -294 2 -321 60 -332 18 -3 144 -5 281 -3
l247 3 0 -95 0 -95 -273 3 c-265 3 -274 2 -300 -18 l-27 -21 0 -270 0 -270 25
-24 24 -25 266 0 266 0 24 25 c24 23 25 30 25 142 l0 118 279 -3 279 -3 21 27
c19 24 21 40 21 166 0 130 1 140 18 132 9 -5 134 -10 278 -12 252 -3 261 -2
287 18 l27 21 0 275 c0 262 -1 275 -20 294 -20 20 -31 21 -295 18 l-275 -3 0
58 0 57 268 0 c248 0 270 1 285 18 15 16 17 52 17 294 0 254 -1 276 -18 291
-16 15 -52 17 -294 17 -330 0 -308 9 -308 -128 l0 -92 -247 2 -248 3 -3 221
c-2 210 -3 222 -23 240 -19 17 -41 19 -273 21 -138 1 -260 -1 -271 -4z m815
-1111 l270 3 0 -109 0 -108 -27 8 c-16 5 -146 9 -291 9 l-262 0 0 108 c0 105
1 107 20 97 14 -7 110 -10 290 -8z"/>
<path d="M6900 6667 c-48 -24 -51 -43 -48 -318 3 -236 5 -259 22 -278 19 -20
27 -21 293 -21 260 0 274 1 293 20 19 19 20 33 20 293 0 266 -1 274 -21 293
-19 17 -41 19 -278 22 -193 2 -262 -1 -281 -11z"/>
<path d="M7633 6458 c-37 -18 -43 -59 -43 -304 l0 -234 -163 0 c-227 0 -207
30 -207 -314 0 -272 0 -273 23 -294 23 -21 30 -22 289 -22 247 0 267 1 289 19
24 19 24 20 27 275 l3 256 164 0 c152 0 167 2 185 20 19 19 20 33 20 294 l0
275 -26 20 c-26 20 -38 21 -283 20 -159 0 -264 -4 -278 -11z"/>
<path d="M5446 6148 c-14 -19 -16 -64 -16 -294 0 -250 1 -272 18 -287 16 -15
52 -17 294 -17 267 0 275 1 294 21 18 20 19 40 19 289 0 249 -1 269 -19 289
-19 20 -27 21 -297 21 -276 0 -278 0 -293 -22z"/>
<path d="M2566 6128 c-14 -19 -16 -64 -16 -290 0 -255 1 -269 20 -288 19 -19
33 -20 294 -20 l275 0 20 26 c20 25 21 39 21 281 0 250 -4 285 -34 305 -6 4
-136 8 -288 8 -275 0 -277 0 -292 -22z"/>
<path d="M8040 5760 c-19 -19 -20 -33 -20 -285 l0 -265 -278 0 c-258 0 -280
-1 -295 -18 -15 -16 -17 -52 -17 -294 0 -254 1 -276 18 -291 16 -15 52 -17
294 -17 253 0 276 1 291 18 14 16 17 54 19 281 l3 262 270 -1 c260 -1 271 0
293 20 22 20 22 25 22 295 0 262 -1 276 -20 295 -19 19 -33 20 -290 20 -257 0
-271 -1 -290 -20z"/>
<path d="M1903 5720 c-40 -16 -43 -38 -43 -308 0 -247 1 -261 21 -286 l20 -26
265 0 264 0 0 -100 0 -100 -254 0 -255 0 -20 -26 c-20 -25 -21 -39 -21 -285
l0 -258 -246 -3 c-245 -3 -246 -3 -265 -27 -18 -22 -19 -42 -19 -290 0 -255 1
-268 20 -289 20 -22 26 -22 295 -22 l274 0 20 26 c20 25 21 39 21 285 l0 259
225 0 225 0 0 -145 0 -145 -164 0 c-150 0 -165 -2 -190 -21 l-26 -20 0 -275
c0 -261 1 -275 20 -294 19 -19 33 -20 289 -20 250 0 270 1 292 19 24 19 24 20
27 279 l3 261 170 3 c166 3 171 4 190 27 18 22 19 42 19 292 0 256 -1 270 -20
289 -19 19 -33 20 -275 20 l-256 0 3 83 3 82 254 3 c220 2 257 5 273 19 17 15
18 38 18 290 0 260 -1 274 -20 293 -19 19 -33 20 -285 20 l-265 0 0 174 c0
156 -2 176 -19 197 l-19 24 -264 2 c-144 1 -273 -2 -285 -7z"/>
<path d="M6714 5269 c-40 -20 -44 -49 -44 -313 0 -241 1 -255 21 -280 l20 -26
275 0 c261 0 275 1 294 20 19 19 20 33 20 293 0 266 -1 274 -21 293 -19 18
-41 19 -283 21 -168 1 -269 -2 -282 -8z"/>
<path d="M1269 5081 c-23 -19 -24 -24 -27 -199 l-4 -180 -28 9 c-16 6 -131 9
-278 7 -313 -4 -292 8 -292 -164 l0 -123 -27 15 c-22 11 -81 14 -286 14 l-258
0 -24 -25 -25 -24 0 -269 c0 -268 0 -269 23 -290 23 -21 30 -22 291 -22 l267
0 24 25 c24 23 25 30 25 140 0 111 1 115 19 105 12 -6 122 -10 289 -10 261 0
269 1 288 21 17 19 20 42 24 203 3 99 9 175 13 169 6 -10 72 -13 271 -13 251
0 265 1 290 21 l26 20 0 275 c0 261 -1 275 -20 294 -19 19 -33 20 -289 20
-250 0 -270 -1 -292 -19z"/>
<path d="M8190 5040 c-19 -19 -20 -33 -20 -289 0 -250 1 -270 19 -292 19 -24
20 -24 268 -27 271 -4 312 2 331 43 8 18 12 108 12 279 0 241 -1 255 -21 280
l-20 26 -275 0 c-261 0 -275 -1 -294 -20z"/>
<path d="M6004 4659 c-17 -19 -19 -42 -22 -277 -2 -178 1 -264 9 -284 18 -44
59 -49 333 -46 223 3 246 5 265 22 20 19 21 27 21 293 0 260 -1 274 -20 293
-19 19 -33 20 -293 20 -266 0 -274 -1 -293 -21z"/>
<path d="M6804 4549 c-18 -20 -19 -40 -19 -289 0 -249 1 -269 19 -289 l19 -21
-192 0 c-190 0 -192 0 -216 -25 l-25 -24 0 -256 0 -255 -224 0 c-221 0 -225 0
-240 -22 -14 -19 -16 -64 -16 -294 0 -250 1 -272 18 -287 16 -15 52 -17 294
-17 267 0 275 1 294 21 17 19 19 42 22 275 l3 254 213 0 c201 0 215 1 240 21
l26 20 0 272 c0 264 -1 271 -22 294 l-21 23 200 0 c181 0 201 2 216 18 15 16
17 52 17 294 0 254 -1 276 -18 291 -16 15 -52 17 -294 17 -267 0 -275 -1 -294
-21z"/>
<path d="M7526 4479 l-26 -20 0 -270 0 -270 25 -24 24 -25 266 0 266 0 24 25
25 24 0 266 0 266 -25 24 -24 25 -264 0 c-252 0 -266 -1 -291 -21z"/>
<path d="M8195 4345 l-25 -24 0 -266 0 -266 25 -24 24 -25 269 0 c268 0 269 0
290 23 21 23 22 30 22 291 l0 267 -25 24 -24 25 -266 0 -266 0 -24 -25z"/>
<path d="M5511 4014 c-20 -25 -21 -39 -21 -284 0 -245 1 -259 21 -284 l20 -26
279 0 c277 0 279 0 294 22 14 19 16 64 16 288 0 224 -2 269 -16 288 -15 22
-17 22 -294 22 l-279 0 -20 -26z"/>
<path d="M725 3895 l-25 -24 0 -266 0 -266 25 -24 24 -25 266 0 266 0 24 25
25 24 0 269 c0 268 0 269 -23 290 -23 21 -30 22 -291 22 l-267 0 -24 -25z"/>
<path d="M3620 3790 c-19 -19 -20 -33 -20 -295 0 -333 -7 -315 128 -315 l87 0
-3 -252 c-3 -270 1 -297 44 -317 16 -7 111 -11 278 -11 241 0 255 1 280 21
l26 20 0 275 c0 333 8 314 -130 314 l-90 0 0 268 c0 147 -4 272 -8 278 -20 30
-55 34 -311 34 -248 0 -262 -1 -281 -20z"/>
<path d="M7220 3788 c-19 -21 -20 -34 -20 -289 0 -248 1 -268 19 -290 l19 -24
277 0 277 0 19 24 c18 22 19 42 19 286 0 250 -1 264 -21 289 l-20 26 -274 0
c-269 0 -275 0 -295 -22z"/>
<path d="M4530 3770 c-19 -19 -20 -33 -20 -284 0 -251 1 -265 21 -290 l20 -26
275 0 c261 0 275 1 294 20 19 19 20 33 20 288 0 226 -2 271 -16 290 -15 22
-17 22 -295 22 -266 0 -280 -1 -299 -20z"/>
<path d="M2832 3734 c-22 -15 -22 -17 -22 -294 l0 -279 26 -20 c25 -20 39 -21
284 -21 245 0 259 1 284 21 l26 20 0 279 c0 277 0 279 -22 294 -19 14 -64 16
-288 16 -224 0 -269 -2 -288 -16z"/>
<path d="M8025 3701 c-45 -19 -46 -24 -43 -320 l3 -281 -197 0 c-185 0 -199
-1 -218 -20 -19 -19 -20 -33 -20 -255 l0 -235 -147 0 -148 0 0 269 c0 250 -1
270 -19 290 -19 20 -27 21 -293 21 -260 0 -274 -1 -293 -20 -19 -19 -20 -33
-20 -294 l0 -275 26 -20 c25 -19 40 -21 190 -21 l164 0 0 -269 0 -270 26 -20
c25 -20 39 -21 281 -21 250 0 285 4 305 34 4 6 8 115 8 243 l0 232 250 3 c244
3 250 3 272 26 23 22 23 28 26 274 2 149 -1 262 -7 279 l-10 29 203 0 c184 0
204 2 219 18 15 16 17 52 17 294 0 267 -1 275 -21 294 -19 18 -41 19 -278 21
-141 1 -265 -2 -276 -6z"/>
<path d="M62 3657 c-21 -23 -22 -30 -22 -291 l0 -267 25 -24 24 -25 266 0 266
0 24 25 25 24 0 266 0 266 -25 24 -24 25 -269 0 c-268 0 -269 0 -290 -23z"/>
<path d="M1432 3564 c-22 -15 -22 -17 -22 -292 0 -152 4 -282 8 -288 20 -30
55 -34 305 -34 242 0 256 1 281 21 l26 20 0 275 c0 261 -1 275 -20 294 -19 19
-33 20 -288 20 -226 0 -271 -2 -290 -16z"/>
<path d="M5179 3361 l-24 -19 -3 -271 -3 -271 25 -25 25 -25 269 0 c268 0 269
0 290 23 21 23 22 30 22 294 l0 272 -26 20 c-25 20 -39 21 -289 21 -244 0
-264 -1 -286 -19z"/>
<path d="M2199 3171 l-24 -19 0 -277 0 -277 24 -19 c22 -18 42 -19 290 -19
255 0 268 1 289 20 22 20 22 26 22 295 l0 274 -26 20 c-25 20 -39 21 -289 21
-244 0 -264 -1 -286 -19z"/>
<path d="M770 3123 c-8 -3 -23 -12 -32 -21 -16 -14 -18 -41 -18 -289 0 -260 1
-274 20 -293 19 -19 33 -20 293 -20 266 0 274 1 293 21 17 19 19 42 22 277 3
274 -1 301 -44 321 -26 11 -504 15 -534 4z"/>
<path d="M3115 3051 c-43 -18 -45 -27 -47 -297 l-3 -259 -218 -5 c-202 -5
-220 -7 -233 -24 -11 -16 -14 -72 -14 -288 0 -255 1 -269 20 -288 19 -19 33
-20 295 -20 262 0 276 1 295 20 19 19 20 33 20 280 l0 260 213 0 c195 0 215 2
230 18 15 16 17 52 17 294 0 267 -1 275 -21 294 -19 18 -41 19 -278 21 -141 1
-265 -2 -276 -6z"/>
<path d="M4512 3000 c-12 -5 -27 -21 -32 -35 -6 -15 -10 -137 -10 -279 0 -241
1 -255 21 -280 l20 -26 229 0 229 0 3 -211 c4 -272 -19 -249 249 -249 l199 0
0 -225 c0 -212 1 -226 20 -245 19 -19 33 -20 295 -20 262 0 276 1 295 20 19
19 20 33 20 288 0 216 -3 272 -14 288 -13 17 -31 19 -223 24 l-208 5 -3 227
-2 227 -27 20 c-24 20 -39 21 -249 21 l-224 0 0 205 c0 205 0 206 -25 230
l-24 25 -258 -1 c-142 0 -268 -4 -281 -9z"/>
<path d="M71 2911 c-30 -30 -33 -64 -29 -330 3 -241 3 -243 27 -262 22 -18 42
-19 292 -19 256 0 270 1 289 20 19 19 20 33 20 294 l0 275 -26 20 c-25 20 -39
21 -290 21 -248 0 -265 -1 -283 -19z"/>
<path d="M1432 2867 c-21 -23 -22 -30 -22 -295 0 -266 0 -272 22 -292 21 -19
34 -20 275 -20 l253 0 0 -239 0 -240 26 -20 c25 -20 39 -21 280 -21 167 0 262
4 278 11 43 20 47 47 44 321 -3 235 -5 258 -22 277 -18 20 -28 21 -272 21
l-253 0 -3 241 c-3 239 -3 241 -27 260 -22 18 -42 19 -290 19 -267 0 -268 0
-289 -23z"/>
<path d="M5721 2724 c-20 -25 -21 -39 -21 -291 l0 -264 25 -24 24 -25 261 0
260 0 0 -169 0 -170 26 -20 c25 -20 39 -21 280 -21 171 0 261 4 279 12 41 19
47 60 43 331 -3 248 -3 249 -27 268 -21 18 -42 19 -282 19 l-259 0 0 164 c0
150 -2 165 -21 190 l-20 26 -274 0 -274 0 -20 -26z"/>
<path d="M3781 2494 c-19 -24 -21 -40 -21 -170 l0 -144 -230 0 c-217 0 -231
-1 -250 -20 -19 -19 -20 -33 -20 -289 0 -250 1 -270 19 -292 19 -24 20 -24
277 -27 276 -3 303 1 323 44 6 15 11 81 11 159 l0 135 200 0 200 0 0 -149 c0
-190 -10 -181 185 -181 l140 0 0 -276 0 -276 24 -19 c22 -18 42 -19 286 -19
250 0 264 1 289 21 l26 20 0 274 0 274 -26 20 c-24 19 -40 21 -165 21 l-139 0
0 274 0 275 -26 20 c-25 20 -39 21 -260 21 l-234 0 0 145 c0 132 -2 147 -20
165 -19 19 -33 20 -294 20 l-275 0 -20 -26z"/>
<path d="M700 2282 c-21 -17 -21 -21 -21 -292 l1 -275 26 -22 c25 -23 30 -23
283 -23 246 0 260 1 285 21 l26 20 0 -51 c0 -41 5 -56 25 -75 l24 -25 223 0
223 0 -3 -284 -3 -284 27 -21 c26 -20 37 -21 290 -21 251 0 265 1 284 20 19
19 20 33 20 299 0 278 0 280 -22 295 -19 13 -60 16 -251 16 -222 0 -227 0
-217 19 6 12 10 120 10 281 l0 261 -25 24 -24 25 -264 0 c-252 0 -266 -1 -291
-21 l-26 -20 0 60 c0 93 7 91 -311 91 -240 0 -269 -2 -289 -18z"/>
<path d="M73 2200 c-40 -16 -43 -38 -43 -314 0 -253 1 -267 20 -286 19 -19 33
-20 294 -20 l275 0 20 26 c20 25 21 39 21 280 0 139 -4 264 -9 277 -6 14 -23
29 -42 36 -38 13 -503 14 -536 1z"/>
<path d="M2560 1720 c-19 -19 -20 -33 -20 -293 0 -266 1 -274 21 -293 19 -17
42 -19 277 -22 277 -3 302 0 322 47 7 19 10 109 8 283 -3 235 -5 258 -22 277
-19 20 -27 21 -293 21 -260 0 -274 -1 -293 -20z"/>
<path d="M5373 1360 c-52 -21 -54 -37 -51 -318 3 -239 5 -262 22 -281 19 -20
27 -21 293 -21 260 0 274 1 293 20 19 19 20 33 20 293 0 266 -1 274 -21 293
-19 18 -41 19 -278 21 -141 1 -266 -2 -278 -7z"/>
<path d="M2590 998 c-19 -20 -20 -34 -20 -195 l0 -173 -98 0 c-85 0 -101 -3
-120 -20 l-22 -21 0 101 c0 94 -2 103 -25 126 l-25 25 -271 -3 -271 -3 -19
-24 c-18 -22 -19 -42 -19 -286 0 -250 1 -264 21 -289 l20 -26 272 0 c264 0
271 1 294 22 l23 21 0 -106 c0 -157 -22 -147 308 -147 216 0 272 3 288 14 17
13 19 31 24 197 l5 182 78 -2 c87 -3 142 11 157 39 6 11 10 127 10 282 0 252
-1 265 -20 286 -20 22 -26 22 -295 22 -269 0 -275 0 -295 -22z"/>
<path d="M4572 797 c-21 -23 -22 -30 -22 -289 0 -247 1 -267 19 -289 l19 -24
277 0 277 0 19 24 c18 22 19 42 19 286 0 250 -1 264 -21 289 l-20 26 -273 0
c-272 0 -273 0 -294 -23z"/>
<path d="M5325 705 l-25 -24 0 -271 c0 -257 1 -271 20 -290 19 -19 33 -20 294
-20 l275 0 20 26 c20 25 21 39 21 278 0 138 -3 261 -6 274 -13 47 -43 52 -319
52 l-256 0 -24 -25z"/>
</g>
</svg>
