<?xml version="1.0" standalone="no"?>
<svg viewBox="0 0 200 200" xmlns="http://www.w3.org/2000/svg">
  <path fill="#F1C21B" d="M45.3,-63.9C60.2,-60.8,75,-50.9,83,-36.9C91.1,-22.8,92.4,-4.7,88.9,12C85.3,28.7,76.8,44,65.1,55.1C53.4,66.1,38.4,73,22.9,77.3C7.3,81.6,-8.8,83.2,-22.6,78.4C-36.3,73.7,-47.8,62.5,-52.8,49.7C-57.9,36.9,-56.6,22.4,-57.6,8.9C-58.6,-4.6,-61.9,-17.2,-60.4,-30.5C-58.9,-43.9,-52.7,-58.1,-41.8,-63C-31,-67.9,-15.5,-63.6,-0.2,-63.3C15.2,-63.1,30.3,-66.9,45.3,-63.9Z" transform="translate(100 100)" />
</svg>
